<?xml version="1.0" encoding="utf-8"?>
<!-- Generator: Adobe Illustrator 23.0.3, SVG Export Plug-In . SVG Version: 6.00 Build 0)  -->
<svg version="1.1" xmlns="http://www.w3.org/2000/svg" xmlns:xlink="http://www.w3.org/1999/xlink" x="0px" y="0px"
	 viewBox="0 0 1080 1080" style="enable-background:new 0 0 1080 1080;" xml:space="preserve">
<style type="text/css">
	.st0{display:none;}
	.st1{display:inline;}
	.st2{fill:none;stroke:#000000;stroke-width:0.25;stroke-miterlimit:10;}
	.st3{fill:#25DFD3;}
</style>
<g id="Reticula" class="st0">
	<g class="st1">
		<g>
			<g>
				<g>
					<rect x="629.06" y="827.03" class="st2" width="85.36" height="85.36"/>
					<line class="st2" x1="671.74" y1="912.39" x2="767.17" y2="912.39"/>
					<rect x="714.42" y="827.03" class="st2" width="52.75" height="85.36"/>
					<rect x="714.42" y="827.03" class="st2" width="52.75" height="52.75"/>
					<rect x="734.54" y="879.75" class="st2" width="32.63" height="32.63"/>
					<rect x="714.42" y="892.26" class="st2" width="20.12" height="20.12"/>
					<rect x="714.42" y="879.78" class="st2" width="12.48" height="12.48"/>
				</g>
				<g>
					
						<rect x="681.81" y="827.03" transform="matrix(-1 -4.490021e-11 4.490021e-11 -1 1448.9822 1739.4111)" class="st2" width="85.36" height="85.36"/>
					<line class="st2" x1="724.49" y1="912.39" x2="629.06" y2="912.39"/>
					
						<rect x="629.06" y="827.03" transform="matrix(-1 -4.489310e-11 4.489310e-11 -1 1310.8684 1739.4111)" class="st2" width="52.75" height="85.36"/>
					
						<rect x="629.06" y="827.03" transform="matrix(-1 -4.485890e-11 4.485890e-11 -1 1310.8684 1706.8069)" class="st2" width="52.75" height="52.75"/>
					
						<rect x="629.06" y="879.75" transform="matrix(-1 -4.487489e-11 4.487489e-11 -1 1290.7443 1792.1395)" class="st2" width="32.63" height="32.63"/>
					
						<rect x="661.69" y="892.26" transform="matrix(-1 -4.492285e-11 4.492285e-11 -1 1343.499 1804.646)" class="st2" width="20.12" height="20.12"/>
					
						<rect x="669.33" y="879.78" transform="matrix(-1 -4.489177e-11 4.489177e-11 -1 1351.1432 1772.0417)" class="st2" width="12.48" height="12.48"/>
				</g>
			</g>
			<g>
				<g>
					<rect x="629.06" y="827.03" class="st2" width="85.36" height="85.36"/>
					<line class="st2" x1="671.74" y1="827.03" x2="767.17" y2="827.03"/>
					<rect x="714.42" y="827.03" class="st2" width="52.75" height="85.36"/>
					<rect x="714.42" y="859.63" class="st2" width="52.75" height="52.75"/>
					<rect x="734.54" y="827.03" class="st2" width="32.63" height="32.63"/>
					<rect x="714.42" y="827.03" class="st2" width="20.12" height="20.12"/>
					<rect x="714.42" y="847.15" class="st2" width="12.48" height="12.48"/>
				</g>
				<g>
					
						<rect x="681.81" y="827.03" transform="matrix(-1 4.489996e-11 -4.489996e-11 -1 1448.9822 1739.4111)" class="st2" width="85.36" height="85.36"/>
					<line class="st2" x1="724.49" y1="827.03" x2="629.06" y2="827.03"/>
					
						<rect x="629.06" y="827.03" transform="matrix(-1 4.489286e-11 -4.489286e-11 -1 1310.8684 1739.4111)" class="st2" width="52.75" height="85.36"/>
					
						<rect x="629.06" y="859.63" transform="matrix(-1 4.485866e-11 -4.485866e-11 -1 1310.8684 1772.0154)" class="st2" width="52.75" height="52.75"/>
					
						<rect x="629.06" y="827.03" transform="matrix(-1 4.493016e-11 -4.493016e-11 -1 1290.7443 1686.6827)" class="st2" width="32.63" height="32.63"/>
					
						<rect x="661.69" y="827.03" transform="matrix(-1 4.483246e-11 -4.483246e-11 -1 1343.499 1674.1764)" class="st2" width="20.12" height="20.12"/>
					
						<rect x="669.33" y="847.15" transform="matrix(-1 4.489152e-11 -4.489152e-11 -1 1351.1432 1706.7805)" class="st2" width="12.48" height="12.48"/>
				</g>
			</g>
		</g>
		<g>
			<g>
				<g>
					
						<rect x="629.07" y="859.62" transform="matrix(6.123234e-17 -1 1 6.123234e-17 -230.5522 1541.4337)" class="st2" width="52.74" height="52.74"/>
					<line class="st2" x1="681.81" y1="885.99" x2="681.81" y2="827.03"/>
					
						<rect x="639.14" y="816.95" transform="matrix(6.123234e-17 -1 1 6.123234e-17 -187.8833 1498.7649)" class="st2" width="32.6" height="52.74"/>
					
						<rect x="629.07" y="827.03" transform="matrix(6.123234e-17 -1 1 6.123234e-17 -197.9561 1488.6921)" class="st2" width="32.6" height="32.6"/>
					
						<rect x="661.65" y="827.03" transform="matrix(6.123234e-17 -1 1 6.123234e-17 -165.3762 1508.8376)" class="st2" width="20.16" height="20.16"/>
					
						<rect x="669.38" y="847.19" transform="matrix(6.123234e-17 -1 1 6.123234e-17 -177.8106 1528.9994)" class="st2" width="12.43" height="12.43"/>
					
						<rect x="661.67" y="851.91" transform="matrix(6.123234e-17 -1 1 6.123234e-17 -190.2449 1521.2883)" class="st2" width="7.71" height="7.71"/>
				</g>
				<g>
					
						<rect x="629.07" y="827.03" transform="matrix(-4.493846e-11 1 -1 -4.493846e-11 1508.8376 197.9561)" class="st2" width="52.74" height="52.74"/>
					<line class="st2" x1="681.81" y1="853.4" x2="681.81" y2="912.36"/>
					
						<rect x="639.14" y="869.69" transform="matrix(-4.486652e-11 1 -1 -4.486652e-11 1551.5065 240.6249)" class="st2" width="32.6" height="52.74"/>
					
						<rect x="629.07" y="879.77" transform="matrix(-4.486652e-11 1 -1 -4.486652e-11 1541.4337 250.6977)" class="st2" width="32.6" height="32.6"/>
					
						<rect x="661.65" y="892.2" transform="matrix(-4.492958e-11 1 -1 -4.492958e-11 1574.0135 230.5522)" class="st2" width="20.16" height="20.16"/>
					
						<rect x="669.38" y="879.77" transform="matrix(-4.491004e-11 1 -1 -4.491004e-11 1561.5792 210.3904)" class="st2" width="12.43" height="12.43"/>
					
						<rect x="661.67" y="879.77" transform="matrix(-4.481944e-11 1 -1 -4.481944e-11 1549.1449 218.1016)" class="st2" width="7.71" height="7.71"/>
				</g>
			</g>
			<g>
				<g>
					
						<rect x="629.07" y="859.62" transform="matrix(6.123234e-17 -1 1 6.123234e-17 -230.5522 1541.4337)" class="st2" width="52.74" height="52.74"/>
					<line class="st2" x1="629.07" y1="885.99" x2="629.07" y2="827.03"/>
					
						<rect x="639.14" y="816.95" transform="matrix(6.123234e-17 -1 1 6.123234e-17 -187.8833 1498.7649)" class="st2" width="32.6" height="52.74"/>
					
						<rect x="649.22" y="827.03" transform="matrix(6.123234e-17 -1 1 6.123234e-17 -177.8106 1508.8376)" class="st2" width="32.6" height="32.6"/>
					
						<rect x="629.07" y="827.03" transform="matrix(6.123234e-17 -1 1 6.123234e-17 -197.9561 1476.2578)" class="st2" width="20.16" height="20.16"/>
					
						<rect x="629.07" y="847.19" transform="matrix(6.123234e-17 -1 1 6.123234e-17 -218.1178 1488.6921)" class="st2" width="12.43" height="12.43"/>
					
						<rect x="641.5" y="851.91" transform="matrix(6.123234e-17 -1 1 6.123234e-17 -210.4067 1501.1265)" class="st2" width="7.71" height="7.71"/>
				</g>
				<g>
					
						<rect x="629.07" y="827.03" transform="matrix(4.490434e-11 1 -1 4.490434e-11 1508.8376 197.9561)" class="st2" width="52.74" height="52.74"/>
					<line class="st2" x1="629.07" y1="853.4" x2="629.07" y2="912.36"/>
					
						<rect x="639.14" y="869.69" transform="matrix(4.486615e-11 1 -1 4.486615e-11 1551.5065 240.6249)" class="st2" width="32.6" height="52.74"/>
					
						<rect x="649.22" y="879.77" transform="matrix(4.492210e-11 1 -1 4.492210e-11 1561.5792 230.5522)" class="st2" width="32.6" height="32.6"/>
					
						<rect x="629.07" y="892.2" transform="matrix(4.492921e-11 1 -1 4.492921e-11 1541.4337 263.132)" class="st2" width="20.16" height="20.16"/>
					
						<rect x="629.07" y="879.77" transform="matrix(4.476401e-11 1 -1 4.476401e-11 1521.272 250.6977)" class="st2" width="12.43" height="12.43"/>
					
						<rect x="641.5" y="879.77" transform="matrix(4.481908e-11 1 -1 4.481908e-11 1528.9832 238.2633)" class="st2" width="7.71" height="7.71"/>
				</g>
			</g>
		</g>
		<g>
			<g>
				<g>
					
						<rect x="714.42" y="859.62" transform="matrix(6.123234e-17 -1 1 6.123234e-17 -145.1998 1626.7861)" class="st2" width="52.74" height="52.74"/>
					<line class="st2" x1="767.16" y1="885.99" x2="767.16" y2="827.03"/>
					
						<rect x="724.5" y="816.95" transform="matrix(6.123234e-17 -1 1 6.123234e-17 -102.5309 1584.1173)" class="st2" width="32.6" height="52.74"/>
					
						<rect x="714.42" y="827.03" transform="matrix(6.123234e-17 -1 1 6.123234e-17 -112.6037 1574.0446)" class="st2" width="32.6" height="32.6"/>
					
						<rect x="747" y="827.03" transform="matrix(6.123234e-17 -1 1 6.123234e-17 -80.0238 1594.1901)" class="st2" width="20.16" height="20.16"/>
					
						<rect x="754.73" y="847.19" transform="matrix(6.123234e-17 -1 1 6.123234e-17 -92.4582 1614.3518)" class="st2" width="12.43" height="12.43"/>
					
						<rect x="747.02" y="851.91" transform="matrix(6.123234e-17 -1 1 6.123234e-17 -104.8925 1606.6407)" class="st2" width="7.71" height="7.71"/>
				</g>
				<g>
					
						<rect x="714.42" y="827.03" transform="matrix(-4.490471e-11 1 -1 -4.490471e-11 1594.1901 112.6037)" class="st2" width="52.74" height="52.74"/>
					<line class="st2" x1="767.16" y1="853.4" x2="767.16" y2="912.36"/>
					
						<rect x="724.5" y="869.69" transform="matrix(-4.492247e-11 1 -1 -4.492247e-11 1636.8589 155.2725)" class="st2" width="32.6" height="52.74"/>
					
						<rect x="714.42" y="879.77" transform="matrix(-4.492247e-11 1 -1 -4.492247e-11 1626.7861 165.3452)" class="st2" width="32.6" height="32.6"/>
					
						<rect x="747" y="892.2" transform="matrix(-4.483898e-11 1 -1 -4.483898e-11 1659.366 145.1998)" class="st2" width="20.16" height="20.16"/>
					
						<rect x="754.73" y="879.77" transform="matrix(-4.491004e-11 1 -1 -4.491004e-11 1646.9316 125.038)" class="st2" width="12.43" height="12.43"/>
					
						<rect x="747.02" y="879.77" transform="matrix(-4.481944e-11 1 -1 -4.481944e-11 1634.4973 132.7491)" class="st2" width="7.71" height="7.71"/>
				</g>
			</g>
			<g>
				<g>
					
						<rect x="714.42" y="859.62" transform="matrix(6.123234e-17 -1 1 6.123234e-17 -145.1998 1626.7861)" class="st2" width="52.74" height="52.74"/>
					<line class="st2" x1="714.42" y1="885.99" x2="714.42" y2="827.03"/>
					
						<rect x="724.5" y="816.95" transform="matrix(6.123234e-17 -1 1 6.123234e-17 -102.5309 1584.1173)" class="st2" width="32.6" height="52.74"/>
					
						<rect x="734.57" y="827.03" transform="matrix(6.123234e-17 -1 1 6.123234e-17 -92.4582 1594.1901)" class="st2" width="32.6" height="32.6"/>
					
						<rect x="714.42" y="827.03" transform="matrix(6.123234e-17 -1 1 6.123234e-17 -112.6037 1561.6102)" class="st2" width="20.16" height="20.16"/>
					
						<rect x="714.42" y="847.19" transform="matrix(6.123234e-17 -1 1 6.123234e-17 -132.7654 1574.0446)" class="st2" width="12.43" height="12.43"/>
					
						<rect x="726.86" y="851.91" transform="matrix(6.123234e-17 -1 1 6.123234e-17 -125.0543 1586.4789)" class="st2" width="7.71" height="7.71"/>
				</g>
				<g>
					
						<rect x="714.42" y="827.03" transform="matrix(4.490434e-11 1 -1 4.490434e-11 1594.1901 112.6037)" class="st2" width="52.74" height="52.74"/>
					<line class="st2" x1="714.42" y1="853.4" x2="714.42" y2="912.36"/>
					
						<rect x="724.5" y="869.69" transform="matrix(4.486615e-11 1 -1 4.486615e-11 1636.8589 155.2725)" class="st2" width="32.6" height="52.74"/>
					
						<rect x="734.57" y="879.77" transform="matrix(4.492210e-11 1 -1 4.492210e-11 1646.9316 145.1998)" class="st2" width="32.6" height="32.6"/>
					
						<rect x="714.42" y="892.2" transform="matrix(4.483862e-11 1 -1 4.483862e-11 1626.7861 177.7796)" class="st2" width="20.16" height="20.16"/>
					
						<rect x="714.42" y="879.77" transform="matrix(4.490967e-11 1 -1 4.490967e-11 1606.6244 165.3452)" class="st2" width="12.43" height="12.43"/>
					
						<rect x="726.86" y="879.77" transform="matrix(4.481908e-11 1 -1 4.481908e-11 1614.3356 152.9109)" class="st2" width="7.71" height="7.71"/>
				</g>
			</g>
		</g>
	</g>
	<g class="st1">
		<g>
			<g>
				<g>
					<rect x="629.06" y="924.22" class="st2" width="85.36" height="85.36"/>
					<line class="st2" x1="671.74" y1="1009.58" x2="767.17" y2="1009.58"/>
					<rect x="714.42" y="924.22" class="st2" width="52.75" height="85.36"/>
					<rect x="714.42" y="924.22" class="st2" width="52.75" height="52.75"/>
					<rect x="734.54" y="976.95" class="st2" width="32.63" height="32.63"/>
					<rect x="714.42" y="989.46" class="st2" width="20.12" height="20.12"/>
					<rect x="714.42" y="976.98" class="st2" width="12.48" height="12.48"/>
				</g>
				<g>
					
						<rect x="681.81" y="924.22" transform="matrix(-1 -4.490021e-11 4.490021e-11 -1 1448.9822 1933.7997)" class="st2" width="85.36" height="85.36"/>
					<line class="st2" x1="724.49" y1="1009.58" x2="629.06" y2="1009.58"/>
					
						<rect x="629.06" y="924.22" transform="matrix(-1 -4.489310e-11 4.489310e-11 -1 1310.8684 1933.7997)" class="st2" width="52.75" height="85.36"/>
					
						<rect x="629.06" y="924.22" transform="matrix(-1 -4.485890e-11 4.485890e-11 -1 1310.8684 1901.1954)" class="st2" width="52.75" height="52.75"/>
					
						<rect x="629.06" y="976.95" transform="matrix(-1 -4.487489e-11 4.487489e-11 -1 1290.7443 1986.5281)" class="st2" width="32.63" height="32.63"/>
					
						<rect x="661.69" y="989.46" transform="matrix(-1 -4.492285e-11 4.492285e-11 -1 1343.499 1999.0345)" class="st2" width="20.12" height="20.12"/>
					
						<rect x="669.33" y="976.98" transform="matrix(-1 -4.489177e-11 4.489177e-11 -1 1351.1432 1966.4303)" class="st2" width="12.48" height="12.48"/>
				</g>
			</g>
			<g>
				<g>
					<rect x="629.06" y="924.22" class="st2" width="85.36" height="85.36"/>
					<line class="st2" x1="671.74" y1="924.22" x2="767.17" y2="924.22"/>
					<rect x="714.42" y="924.22" class="st2" width="52.75" height="85.36"/>
					<rect x="714.42" y="956.82" class="st2" width="52.75" height="52.75"/>
					<rect x="734.54" y="924.22" class="st2" width="32.63" height="32.63"/>
					<rect x="714.42" y="924.22" class="st2" width="20.12" height="20.12"/>
					<rect x="714.42" y="944.34" class="st2" width="12.48" height="12.48"/>
				</g>
				<g>
					
						<rect x="681.81" y="924.22" transform="matrix(-1 4.489996e-11 -4.489996e-11 -1 1448.9822 1933.7997)" class="st2" width="85.36" height="85.36"/>
					<line class="st2" x1="724.49" y1="924.22" x2="629.06" y2="924.22"/>
					
						<rect x="629.06" y="924.22" transform="matrix(-1 4.489286e-11 -4.489286e-11 -1 1310.8684 1933.7997)" class="st2" width="52.75" height="85.36"/>
					
						<rect x="629.06" y="956.82" transform="matrix(-1 4.485866e-11 -4.485866e-11 -1 1310.8684 1966.4039)" class="st2" width="52.75" height="52.75"/>
					
						<rect x="629.06" y="924.22" transform="matrix(-1 4.493016e-11 -4.493016e-11 -1 1290.7443 1881.0713)" class="st2" width="32.63" height="32.63"/>
					
						<rect x="661.69" y="924.22" transform="matrix(-1 4.483246e-11 -4.483246e-11 -1 1343.499 1868.5648)" class="st2" width="20.12" height="20.12"/>
					
						<rect x="669.33" y="944.34" transform="matrix(-1 4.489152e-11 -4.489152e-11 -1 1351.1432 1901.1691)" class="st2" width="12.48" height="12.48"/>
				</g>
			</g>
		</g>
		<g>
			<g>
				<g>
					
						<rect x="629.07" y="956.82" transform="matrix(6.123234e-17 -1 1 6.123234e-17 -327.7464 1638.6281)" class="st2" width="52.74" height="52.74"/>
					<line class="st2" x1="681.81" y1="983.19" x2="681.81" y2="924.22"/>
					
						<rect x="639.14" y="914.15" transform="matrix(6.123234e-17 -1 1 6.123234e-17 -285.0776 1595.9592)" class="st2" width="32.6" height="52.74"/>
					
						<rect x="629.07" y="924.22" transform="matrix(6.123234e-17 -1 1 6.123234e-17 -295.1503 1585.8865)" class="st2" width="32.6" height="32.6"/>
					
						<rect x="661.65" y="924.22" transform="matrix(6.123234e-17 -1 1 6.123234e-17 -262.5705 1606.032)" class="st2" width="20.16" height="20.16"/>
					
						<rect x="669.38" y="944.38" transform="matrix(6.123234e-17 -1 1 6.123234e-17 -275.0049 1626.1937)" class="st2" width="12.43" height="12.43"/>
					
						<rect x="661.67" y="949.11" transform="matrix(6.123234e-17 -1 1 6.123234e-17 -287.4392 1618.4825)" class="st2" width="7.71" height="7.71"/>
				</g>
				<g>
					
						<rect x="629.07" y="924.22" transform="matrix(-4.493846e-11 1 -1 -4.493846e-11 1606.032 295.1503)" class="st2" width="52.74" height="52.74"/>
					<line class="st2" x1="681.81" y1="950.59" x2="681.81" y2="1009.56"/>
					
						<rect x="639.14" y="966.89" transform="matrix(-4.486652e-11 1 -1 -4.486652e-11 1648.7008 337.8192)" class="st2" width="32.6" height="52.74"/>
					
						<rect x="629.07" y="976.96" transform="matrix(-4.486652e-11 1 -1 -4.486652e-11 1638.6281 347.8919)" class="st2" width="32.6" height="32.6"/>
					
						<rect x="661.65" y="989.4" transform="matrix(-4.492958e-11 1 -1 -4.492958e-11 1671.2079 327.7465)" class="st2" width="20.16" height="20.16"/>
					
						<rect x="669.38" y="976.96" transform="matrix(-4.491004e-11 1 -1 -4.491004e-11 1658.7736 307.5847)" class="st2" width="12.43" height="12.43"/>
					
						<rect x="661.67" y="976.96" transform="matrix(-4.481944e-11 1 -1 -4.481944e-11 1646.3392 315.2958)" class="st2" width="7.71" height="7.71"/>
				</g>
			</g>
			<g>
				<g>
					
						<rect x="629.07" y="956.82" transform="matrix(6.123234e-17 -1 1 6.123234e-17 -327.7464 1638.6281)" class="st2" width="52.74" height="52.74"/>
					<line class="st2" x1="629.07" y1="983.19" x2="629.07" y2="924.22"/>
					
						<rect x="639.14" y="914.15" transform="matrix(6.123234e-17 -1 1 6.123234e-17 -285.0776 1595.9592)" class="st2" width="32.6" height="52.74"/>
					
						<rect x="649.22" y="924.22" transform="matrix(6.123234e-17 -1 1 6.123234e-17 -275.0049 1606.032)" class="st2" width="32.6" height="32.6"/>
					
						<rect x="629.07" y="924.22" transform="matrix(6.123234e-17 -1 1 6.123234e-17 -295.1503 1573.4521)" class="st2" width="20.16" height="20.16"/>
					
						<rect x="629.07" y="944.38" transform="matrix(6.123234e-17 -1 1 6.123234e-17 -315.3121 1585.8865)" class="st2" width="12.43" height="12.43"/>
					
						<rect x="641.5" y="949.11" transform="matrix(6.123234e-17 -1 1 6.123234e-17 -307.601 1598.3208)" class="st2" width="7.71" height="7.71"/>
				</g>
				<g>
					
						<rect x="629.07" y="924.22" transform="matrix(4.490434e-11 1 -1 4.490434e-11 1606.032 295.1503)" class="st2" width="52.74" height="52.74"/>
					<line class="st2" x1="629.07" y1="950.59" x2="629.07" y2="1009.56"/>
					
						<rect x="639.14" y="966.89" transform="matrix(4.486615e-11 1 -1 4.486615e-11 1648.7008 337.8192)" class="st2" width="32.6" height="52.74"/>
					
						<rect x="649.22" y="976.96" transform="matrix(4.492210e-11 1 -1 4.492210e-11 1658.7736 327.7464)" class="st2" width="32.6" height="32.6"/>
					
						<rect x="629.07" y="989.4" transform="matrix(4.492921e-11 1 -1 4.492921e-11 1638.6281 360.3263)" class="st2" width="20.16" height="20.16"/>
					
						<rect x="629.07" y="976.96" transform="matrix(4.476401e-11 1 -1 4.476401e-11 1618.4663 347.8919)" class="st2" width="12.43" height="12.43"/>
					
						<rect x="641.5" y="976.96" transform="matrix(4.481908e-11 1 -1 4.481908e-11 1626.1775 335.4576)" class="st2" width="7.71" height="7.71"/>
				</g>
			</g>
		</g>
		<g>
			<g>
				<g>
					
						<rect x="714.42" y="956.82" transform="matrix(6.123234e-17 -1 1 6.123234e-17 -242.394 1723.9805)" class="st2" width="52.74" height="52.74"/>
					<line class="st2" x1="767.16" y1="983.19" x2="767.16" y2="924.22"/>
					
						<rect x="724.5" y="914.15" transform="matrix(6.123234e-17 -1 1 6.123234e-17 -199.7252 1681.3116)" class="st2" width="32.6" height="52.74"/>
					
						<rect x="714.42" y="924.22" transform="matrix(6.123234e-17 -1 1 6.123234e-17 -209.7979 1671.2389)" class="st2" width="32.6" height="32.6"/>
					
						<rect x="747" y="924.22" transform="matrix(6.123234e-17 -1 1 6.123234e-17 -177.2181 1691.3844)" class="st2" width="20.16" height="20.16"/>
					
						<rect x="754.73" y="944.38" transform="matrix(6.123234e-17 -1 1 6.123234e-17 -189.6524 1711.5461)" class="st2" width="12.43" height="12.43"/>
					
						<rect x="747.02" y="949.11" transform="matrix(6.123234e-17 -1 1 6.123234e-17 -202.0868 1703.835)" class="st2" width="7.71" height="7.71"/>
				</g>
				<g>
					
						<rect x="714.42" y="924.22" transform="matrix(-4.490471e-11 1 -1 -4.490471e-11 1691.3844 209.7979)" class="st2" width="52.74" height="52.74"/>
					<line class="st2" x1="767.16" y1="950.59" x2="767.16" y2="1009.56"/>
					
						<rect x="724.5" y="966.89" transform="matrix(-4.492247e-11 1 -1 -4.492247e-11 1734.0532 252.4668)" class="st2" width="32.6" height="52.74"/>
					
						<rect x="714.42" y="976.96" transform="matrix(-4.492247e-11 1 -1 -4.492247e-11 1723.9805 262.5395)" class="st2" width="32.6" height="32.6"/>
					
						<rect x="747" y="989.4" transform="matrix(-4.483898e-11 1 -1 -4.483898e-11 1756.5603 242.394)" class="st2" width="20.16" height="20.16"/>
					
						<rect x="754.73" y="976.96" transform="matrix(-4.491004e-11 1 -1 -4.491004e-11 1744.126 222.2323)" class="st2" width="12.43" height="12.43"/>
					
						<rect x="747.02" y="976.96" transform="matrix(-4.481944e-11 1 -1 -4.481944e-11 1731.6917 229.9434)" class="st2" width="7.71" height="7.71"/>
				</g>
			</g>
			<g>
				<g>
					
						<rect x="714.42" y="956.82" transform="matrix(6.123234e-17 -1 1 6.123234e-17 -242.394 1723.9805)" class="st2" width="52.74" height="52.74"/>
					<line class="st2" x1="714.42" y1="983.19" x2="714.42" y2="924.22"/>
					
						<rect x="724.5" y="914.15" transform="matrix(6.123234e-17 -1 1 6.123234e-17 -199.7252 1681.3116)" class="st2" width="32.6" height="52.74"/>
					
						<rect x="734.57" y="924.22" transform="matrix(6.123234e-17 -1 1 6.123234e-17 -189.6524 1691.3844)" class="st2" width="32.6" height="32.6"/>
					
						<rect x="714.42" y="924.22" transform="matrix(6.123234e-17 -1 1 6.123234e-17 -209.7979 1658.8046)" class="st2" width="20.16" height="20.16"/>
					
						<rect x="714.42" y="944.38" transform="matrix(6.123234e-17 -1 1 6.123234e-17 -229.9597 1671.2389)" class="st2" width="12.43" height="12.43"/>
					
						<rect x="726.86" y="949.11" transform="matrix(6.123234e-17 -1 1 6.123234e-17 -222.2485 1683.6732)" class="st2" width="7.71" height="7.71"/>
				</g>
				<g>
					
						<rect x="714.42" y="924.22" transform="matrix(4.490434e-11 1 -1 4.490434e-11 1691.3844 209.7979)" class="st2" width="52.74" height="52.74"/>
					<line class="st2" x1="714.42" y1="950.59" x2="714.42" y2="1009.56"/>
					
						<rect x="724.5" y="966.89" transform="matrix(4.486615e-11 1 -1 4.486615e-11 1734.0532 252.4668)" class="st2" width="32.6" height="52.74"/>
					
						<rect x="734.57" y="976.96" transform="matrix(4.492210e-11 1 -1 4.492210e-11 1744.126 242.394)" class="st2" width="32.6" height="32.6"/>
					
						<rect x="714.42" y="989.4" transform="matrix(4.483862e-11 1 -1 4.483862e-11 1723.9805 274.9738)" class="st2" width="20.16" height="20.16"/>
					
						<rect x="714.42" y="976.96" transform="matrix(4.490967e-11 1 -1 4.490967e-11 1703.8187 262.5395)" class="st2" width="12.43" height="12.43"/>
					
						<rect x="726.86" y="976.96" transform="matrix(4.481908e-11 1 -1 4.481908e-11 1711.5299 250.1052)" class="st2" width="7.71" height="7.71"/>
				</g>
			</g>
		</g>
	</g>
	<g class="st1">
		<g>
			<g>
				<g>
					<rect x="629.06" y="1024.09" class="st2" width="85.36" height="85.36"/>
					<rect x="714.42" y="1024.09" class="st2" width="52.75" height="85.36"/>
					<rect x="714.42" y="1024.09" class="st2" width="52.75" height="52.75"/>
					<rect x="734.54" y="1076.81" class="st2" width="32.63" height="32.63"/>
					<rect x="714.42" y="1076.84" class="st2" width="12.48" height="12.48"/>
				</g>
				<g>
					
						<rect x="681.81" y="1024.09" transform="matrix(-1 -4.490021e-11 4.490021e-11 -1 1448.9822 2133.53)" class="st2" width="85.36" height="85.36"/>
					
						<rect x="629.06" y="1024.09" transform="matrix(-1 -4.489310e-11 4.489310e-11 -1 1310.8684 2133.53)" class="st2" width="52.75" height="85.36"/>
					
						<rect x="629.06" y="1024.09" transform="matrix(-1 -4.485890e-11 4.485890e-11 -1 1310.8684 2100.9258)" class="st2" width="52.75" height="52.75"/>
					
						<rect x="629.06" y="1076.81" transform="matrix(-1 -4.487489e-11 4.487489e-11 -1 1290.7443 2186.2585)" class="st2" width="32.63" height="32.63"/>
					
						<rect x="669.33" y="1076.84" transform="matrix(-1 -4.489177e-11 4.489177e-11 -1 1351.1432 2166.1606)" class="st2" width="12.48" height="12.48"/>
				</g>
			</g>
			<g>
				<g>
					<rect x="629.06" y="1024.09" class="st2" width="85.36" height="85.36"/>
					<line class="st2" x1="671.74" y1="1024.09" x2="767.17" y2="1024.09"/>
					<rect x="714.42" y="1024.09" class="st2" width="52.75" height="85.36"/>
					<rect x="714.42" y="1056.69" class="st2" width="52.75" height="52.75"/>
					<rect x="734.54" y="1024.09" class="st2" width="32.63" height="32.63"/>
					<rect x="714.42" y="1024.09" class="st2" width="20.12" height="20.12"/>
					<rect x="714.42" y="1044.21" class="st2" width="12.48" height="12.48"/>
				</g>
				<g>
					
						<rect x="681.81" y="1024.09" transform="matrix(-1 4.489996e-11 -4.489996e-11 -1 1448.9822 2133.53)" class="st2" width="85.36" height="85.36"/>
					<line class="st2" x1="724.49" y1="1024.09" x2="629.06" y2="1024.09"/>
					
						<rect x="629.06" y="1024.09" transform="matrix(-1 4.489286e-11 -4.489286e-11 -1 1310.8684 2133.53)" class="st2" width="52.75" height="85.36"/>
					
						<rect x="629.06" y="1056.69" transform="matrix(-1 4.485866e-11 -4.485866e-11 -1 1310.8684 2166.1343)" class="st2" width="52.75" height="52.75"/>
					
						<rect x="629.06" y="1024.09" transform="matrix(-1 4.493016e-11 -4.493016e-11 -1 1290.7443 2080.8018)" class="st2" width="32.63" height="32.63"/>
					
						<rect x="661.69" y="1024.09" transform="matrix(-1 4.483246e-11 -4.483246e-11 -1 1343.499 2068.2952)" class="st2" width="20.12" height="20.12"/>
					
						<rect x="669.33" y="1044.21" transform="matrix(-1 4.489152e-11 -4.489152e-11 -1 1351.1432 2100.8994)" class="st2" width="12.48" height="12.48"/>
				</g>
			</g>
		</g>
		<g>
			<g>
				<g>
					
						<rect x="629.07" y="1056.68" transform="matrix(6.123234e-17 -1 1 6.123234e-17 -427.6116 1738.4933)" class="st2" width="52.74" height="52.74"/>
					<line class="st2" x1="681.81" y1="1083.05" x2="681.81" y2="1024.09"/>
					
						<rect x="639.14" y="1014.01" transform="matrix(6.123234e-17 -1 1 6.123234e-17 -384.9428 1695.8243)" class="st2" width="32.6" height="52.74"/>
					
						<rect x="629.07" y="1024.09" transform="matrix(6.123234e-17 -1 1 6.123234e-17 -395.0155 1685.7516)" class="st2" width="32.6" height="32.6"/>
					
						<rect x="661.65" y="1024.09" transform="matrix(6.123234e-17 -1 1 6.123234e-17 -362.4357 1705.8971)" class="st2" width="20.16" height="20.16"/>
					
						<rect x="669.38" y="1044.25" transform="matrix(6.123234e-17 -1 1 6.123234e-17 -374.8701 1726.059)" class="st2" width="12.43" height="12.43"/>
					
						<rect x="661.67" y="1048.97" transform="matrix(6.123234e-17 -1 1 6.123234e-17 -387.3044 1718.3478)" class="st2" width="7.71" height="7.71"/>
				</g>
				<g>
					
						<rect x="629.07" y="1024.09" transform="matrix(-4.493846e-11 1 -1 -4.493846e-11 1705.8971 395.0155)" class="st2" width="52.74" height="52.74"/>
					<line class="st2" x1="681.81" y1="1050.46" x2="681.81" y2="1109.42"/>
					
						<rect x="639.14" y="1066.75" transform="matrix(-4.486652e-11 1 -1 -4.486652e-11 1748.566 437.6844)" class="st2" width="32.6" height="52.74"/>
					
						<rect x="629.07" y="1076.83" transform="matrix(-4.486652e-11 1 -1 -4.486652e-11 1738.4933 447.7571)" class="st2" width="32.6" height="32.6"/>
					
						<rect x="669.38" y="1076.83" transform="matrix(-4.491004e-11 1 -1 -4.491004e-11 1758.6388 407.4499)" class="st2" width="12.43" height="12.43"/>
					
						<rect x="661.67" y="1076.83" transform="matrix(-4.481944e-11 1 -1 -4.481944e-11 1746.2043 415.161)" class="st2" width="7.71" height="7.71"/>
				</g>
			</g>
			<g>
				<g>
					
						<rect x="629.07" y="1056.68" transform="matrix(6.123234e-17 -1 1 6.123234e-17 -427.6116 1738.4933)" class="st2" width="52.74" height="52.74"/>
					<line class="st2" x1="629.07" y1="1083.05" x2="629.07" y2="1024.09"/>
					
						<rect x="639.14" y="1014.01" transform="matrix(6.123234e-17 -1 1 6.123234e-17 -384.9428 1695.8243)" class="st2" width="32.6" height="52.74"/>
					
						<rect x="649.22" y="1024.09" transform="matrix(6.123234e-17 -1 1 6.123234e-17 -374.8701 1705.8971)" class="st2" width="32.6" height="32.6"/>
					
						<rect x="629.07" y="1024.09" transform="matrix(6.123234e-17 -1 1 6.123234e-17 -395.0155 1673.3173)" class="st2" width="20.16" height="20.16"/>
					
						<rect x="629.07" y="1044.25" transform="matrix(6.123234e-17 -1 1 6.123234e-17 -415.1773 1685.7516)" class="st2" width="12.43" height="12.43"/>
					
						<rect x="641.5" y="1048.97" transform="matrix(6.123234e-17 -1 1 6.123234e-17 -407.4662 1698.1859)" class="st2" width="7.71" height="7.71"/>
				</g>
				<g>
					
						<rect x="629.07" y="1024.09" transform="matrix(4.490434e-11 1 -1 4.490434e-11 1705.8971 395.0155)" class="st2" width="52.74" height="52.74"/>
					<line class="st2" x1="629.07" y1="1050.46" x2="629.07" y2="1109.42"/>
					
						<rect x="639.14" y="1066.75" transform="matrix(4.486615e-11 1 -1 4.486615e-11 1748.566 437.6844)" class="st2" width="32.6" height="52.74"/>
					
						<rect x="649.22" y="1076.83" transform="matrix(4.492210e-11 1 -1 4.492210e-11 1758.6388 427.6116)" class="st2" width="32.6" height="32.6"/>
					
						<rect x="629.07" y="1076.83" transform="matrix(4.476401e-11 1 -1 4.476401e-11 1718.3314 447.7571)" class="st2" width="12.43" height="12.43"/>
					
						<rect x="641.5" y="1076.83" transform="matrix(4.481908e-11 1 -1 4.481908e-11 1726.0426 435.3228)" class="st2" width="7.71" height="7.71"/>
				</g>
			</g>
		</g>
		<g>
			<g>
				<g>
					
						<rect x="714.42" y="1056.68" transform="matrix(6.123234e-17 -1 1 6.123234e-17 -342.2592 1823.8457)" class="st2" width="52.74" height="52.74"/>
					<line class="st2" x1="767.16" y1="1083.05" x2="767.16" y2="1024.09"/>
					
						<rect x="724.5" y="1014.01" transform="matrix(6.123234e-17 -1 1 6.123234e-17 -299.5904 1781.1768)" class="st2" width="32.6" height="52.74"/>
					
						<rect x="714.42" y="1024.09" transform="matrix(6.123234e-17 -1 1 6.123234e-17 -309.6631 1771.104)" class="st2" width="32.6" height="32.6"/>
					
						<rect x="747" y="1024.09" transform="matrix(6.123234e-17 -1 1 6.123234e-17 -277.0833 1791.2495)" class="st2" width="20.16" height="20.16"/>
					
						<rect x="754.73" y="1044.25" transform="matrix(6.123234e-17 -1 1 6.123234e-17 -289.5176 1811.4114)" class="st2" width="12.43" height="12.43"/>
					
						<rect x="747.02" y="1048.97" transform="matrix(6.123234e-17 -1 1 6.123234e-17 -301.952 1803.7002)" class="st2" width="7.71" height="7.71"/>
				</g>
				<g>
					
						<rect x="714.42" y="1024.09" transform="matrix(-4.490471e-11 1 -1 -4.490471e-11 1791.2495 309.6631)" class="st2" width="52.74" height="52.74"/>
					<line class="st2" x1="767.16" y1="1050.46" x2="767.16" y2="1109.42"/>
					
						<rect x="724.5" y="1066.75" transform="matrix(-4.492247e-11 1 -1 -4.492247e-11 1833.9185 352.332)" class="st2" width="32.6" height="52.74"/>
					
						<rect x="714.42" y="1076.83" transform="matrix(-4.492247e-11 1 -1 -4.492247e-11 1823.8457 362.4047)" class="st2" width="32.6" height="32.6"/>
					
						<rect x="754.73" y="1076.83" transform="matrix(-4.491004e-11 1 -1 -4.491004e-11 1843.9912 322.0974)" class="st2" width="12.43" height="12.43"/>
					
						<rect x="747.02" y="1076.83" transform="matrix(-4.481944e-11 1 -1 -4.481944e-11 1831.5569 329.8086)" class="st2" width="7.71" height="7.71"/>
				</g>
			</g>
			<g>
				<g>
					
						<rect x="714.42" y="1056.68" transform="matrix(6.123234e-17 -1 1 6.123234e-17 -342.2592 1823.8457)" class="st2" width="52.74" height="52.74"/>
					<line class="st2" x1="714.42" y1="1083.05" x2="714.42" y2="1024.09"/>
					
						<rect x="724.5" y="1014.01" transform="matrix(6.123234e-17 -1 1 6.123234e-17 -299.5904 1781.1768)" class="st2" width="32.6" height="52.74"/>
					
						<rect x="734.57" y="1024.09" transform="matrix(6.123234e-17 -1 1 6.123234e-17 -289.5176 1791.2495)" class="st2" width="32.6" height="32.6"/>
					
						<rect x="714.42" y="1024.09" transform="matrix(6.123234e-17 -1 1 6.123234e-17 -309.6631 1758.6697)" class="st2" width="20.16" height="20.16"/>
					
						<rect x="714.42" y="1044.25" transform="matrix(6.123234e-17 -1 1 6.123234e-17 -329.8249 1771.104)" class="st2" width="12.43" height="12.43"/>
					
						<rect x="726.86" y="1048.97" transform="matrix(6.123234e-17 -1 1 6.123234e-17 -322.1137 1783.5385)" class="st2" width="7.71" height="7.71"/>
				</g>
				<g>
					
						<rect x="714.42" y="1024.09" transform="matrix(4.490434e-11 1 -1 4.490434e-11 1791.2495 309.6631)" class="st2" width="52.74" height="52.74"/>
					<line class="st2" x1="714.42" y1="1050.46" x2="714.42" y2="1109.42"/>
					
						<rect x="724.5" y="1066.75" transform="matrix(4.486615e-11 1 -1 4.486615e-11 1833.9185 352.332)" class="st2" width="32.6" height="52.74"/>
					
						<rect x="734.57" y="1076.83" transform="matrix(4.492210e-11 1 -1 4.492210e-11 1843.9912 342.2592)" class="st2" width="32.6" height="32.6"/>
					
						<rect x="714.42" y="1076.83" transform="matrix(4.490967e-11 1 -1 4.490967e-11 1803.6838 362.4047)" class="st2" width="12.43" height="12.43"/>
					
						<rect x="726.86" y="1076.83" transform="matrix(4.481908e-11 1 -1 4.481908e-11 1811.395 349.9704)" class="st2" width="7.71" height="7.71"/>
				</g>
			</g>
		</g>
	</g>
</g>
<g id="Layer_1">
	<g>
		<g>
			<path class="st3" d="M644.72,531.74c-25.38-29.16-62.56-47.12-103.48-47.12c-42.73,0-78.71,17.96-106.56,47.12
				c-26.64,29.72-42.79,66.3-42.79,108.43c0,43.34,16.15,81.79,42.79,109.03c27.85,29.11,63.82,47.12,106.56,47.12
				c40.92,0,78.1-18.01,103.48-47.12c27.9-27.25,43.39-65.69,43.39-109.03C688.11,598.03,672.62,561.45,644.72,531.74z
				 M598.25,705.85c-15.49,14.83-35.32,22.91-57.01,22.91c-23.56,0-44-8.07-59.49-22.91c-14.23-17.36-22.3-39.05-22.3-65.69
				c0-25.43,8.07-47.73,22.3-64.48c15.49-13.62,35.92-23.51,59.49-23.51c21.7,0,41.52,9.89,57.01,23.51
				c15.49,16.75,24.17,39.05,24.17,64.48C622.42,666.8,613.74,688.5,598.25,705.85z"/>
			<path class="st3" d="M689.9,379.17l-14.71-10.3l-102.38-70.15l-13.53-8.86c-11.64-8.05-27.44-8.4-39.4-0.02l-12.69,8.88
				l-102.38,70.15l-14.71,10.3c-15.71,11-19.36,31.73-8.33,47.47c10.65,15.21,31.73,19.36,47.43,8.36l60.72-40.98L540,358.96
				l50.09,35.07L650.81,435c15.71,11,36.78,6.85,47.43-8.36C709.26,410.89,705.61,390.16,689.9,379.17z"/>
		</g>
	</g>
</g>
</svg>
