<?xml version="1.0" encoding="utf-8"?>
<!-- Generator: Adobe Illustrator 23.0.3, SVG Export Plug-In . SVG Version: 6.00 Build 0)  -->
<svg version="1.1" xmlns="http://www.w3.org/2000/svg" xmlns:xlink="http://www.w3.org/1999/xlink" x="0px" y="0px"
	 viewBox="0 0 1080 1080" style="enable-background:new 0 0 1080 1080;" xml:space="preserve">
<style type="text/css">
	.st0{display:none;}
	.st1{display:inline;}
	.st2{fill:none;stroke:#000000;stroke-width:0.25;stroke-miterlimit:10;}
</style>
<g id="Reticula" class="st0">
	<g class="st1">
		<g>
			<g>
				<g>
					<rect x="629.06" y="827.03" class="st2" width="85.36" height="85.36"/>
					<line class="st2" x1="671.74" y1="912.39" x2="767.17" y2="912.39"/>
					<rect x="714.42" y="827.03" class="st2" width="52.75" height="85.36"/>
					<rect x="714.42" y="827.03" class="st2" width="52.75" height="52.75"/>
					<rect x="734.54" y="879.75" class="st2" width="32.63" height="32.63"/>
					<rect x="714.42" y="892.26" class="st2" width="20.12" height="20.12"/>
					<rect x="714.42" y="879.78" class="st2" width="12.48" height="12.48"/>
				</g>
				<g>
					
						<rect x="681.81" y="827.03" transform="matrix(-1 -4.490021e-11 4.490021e-11 -1 1448.9822 1739.4111)" class="st2" width="85.36" height="85.36"/>
					<line class="st2" x1="724.49" y1="912.39" x2="629.06" y2="912.39"/>
					
						<rect x="629.06" y="827.03" transform="matrix(-1 -4.489310e-11 4.489310e-11 -1 1310.8684 1739.4111)" class="st2" width="52.75" height="85.36"/>
					
						<rect x="629.06" y="827.03" transform="matrix(-1 -4.485890e-11 4.485890e-11 -1 1310.8684 1706.8069)" class="st2" width="52.75" height="52.75"/>
					
						<rect x="629.06" y="879.75" transform="matrix(-1 -4.487489e-11 4.487489e-11 -1 1290.7443 1792.1395)" class="st2" width="32.63" height="32.63"/>
					
						<rect x="661.69" y="892.26" transform="matrix(-1 -4.492285e-11 4.492285e-11 -1 1343.499 1804.646)" class="st2" width="20.12" height="20.12"/>
					
						<rect x="669.33" y="879.78" transform="matrix(-1 -4.489177e-11 4.489177e-11 -1 1351.1432 1772.0417)" class="st2" width="12.48" height="12.48"/>
				</g>
			</g>
			<g>
				<g>
					<rect x="629.06" y="827.03" class="st2" width="85.36" height="85.36"/>
					<line class="st2" x1="671.74" y1="827.03" x2="767.17" y2="827.03"/>
					<rect x="714.42" y="827.03" class="st2" width="52.75" height="85.36"/>
					<rect x="714.42" y="859.63" class="st2" width="52.75" height="52.75"/>
					<rect x="734.54" y="827.03" class="st2" width="32.63" height="32.63"/>
					<rect x="714.42" y="827.03" class="st2" width="20.12" height="20.12"/>
					<rect x="714.42" y="847.15" class="st2" width="12.48" height="12.48"/>
				</g>
				<g>
					
						<rect x="681.81" y="827.03" transform="matrix(-1 4.489996e-11 -4.489996e-11 -1 1448.9822 1739.4111)" class="st2" width="85.36" height="85.36"/>
					<line class="st2" x1="724.49" y1="827.03" x2="629.06" y2="827.03"/>
					
						<rect x="629.06" y="827.03" transform="matrix(-1 4.489286e-11 -4.489286e-11 -1 1310.8684 1739.4111)" class="st2" width="52.75" height="85.36"/>
					
						<rect x="629.06" y="859.63" transform="matrix(-1 4.485866e-11 -4.485866e-11 -1 1310.8684 1772.0154)" class="st2" width="52.75" height="52.75"/>
					
						<rect x="629.06" y="827.03" transform="matrix(-1 4.493016e-11 -4.493016e-11 -1 1290.7443 1686.6827)" class="st2" width="32.63" height="32.63"/>
					
						<rect x="661.69" y="827.03" transform="matrix(-1 4.483246e-11 -4.483246e-11 -1 1343.499 1674.1764)" class="st2" width="20.12" height="20.12"/>
					
						<rect x="669.33" y="847.15" transform="matrix(-1 4.489152e-11 -4.489152e-11 -1 1351.1432 1706.7805)" class="st2" width="12.48" height="12.48"/>
				</g>
			</g>
		</g>
		<g>
			<g>
				<g>
					
						<rect x="629.07" y="859.62" transform="matrix(6.123234e-17 -1 1 6.123234e-17 -230.5522 1541.4337)" class="st2" width="52.74" height="52.74"/>
					<line class="st2" x1="681.81" y1="885.99" x2="681.81" y2="827.03"/>
					
						<rect x="639.14" y="816.95" transform="matrix(6.123234e-17 -1 1 6.123234e-17 -187.8833 1498.7649)" class="st2" width="32.6" height="52.74"/>
					
						<rect x="629.07" y="827.03" transform="matrix(6.123234e-17 -1 1 6.123234e-17 -197.9561 1488.6921)" class="st2" width="32.6" height="32.6"/>
					
						<rect x="661.65" y="827.03" transform="matrix(6.123234e-17 -1 1 6.123234e-17 -165.3762 1508.8376)" class="st2" width="20.16" height="20.16"/>
					
						<rect x="669.38" y="847.19" transform="matrix(6.123234e-17 -1 1 6.123234e-17 -177.8106 1528.9994)" class="st2" width="12.43" height="12.43"/>
					
						<rect x="661.67" y="851.91" transform="matrix(6.123234e-17 -1 1 6.123234e-17 -190.2449 1521.2883)" class="st2" width="7.71" height="7.71"/>
				</g>
				<g>
					
						<rect x="629.07" y="827.03" transform="matrix(-4.493846e-11 1 -1 -4.493846e-11 1508.8376 197.9561)" class="st2" width="52.74" height="52.74"/>
					<line class="st2" x1="681.81" y1="853.4" x2="681.81" y2="912.36"/>
					
						<rect x="639.14" y="869.69" transform="matrix(-4.486652e-11 1 -1 -4.486652e-11 1551.5065 240.6249)" class="st2" width="32.6" height="52.74"/>
					
						<rect x="629.07" y="879.77" transform="matrix(-4.486652e-11 1 -1 -4.486652e-11 1541.4337 250.6977)" class="st2" width="32.6" height="32.6"/>
					
						<rect x="661.65" y="892.2" transform="matrix(-4.492958e-11 1 -1 -4.492958e-11 1574.0135 230.5522)" class="st2" width="20.16" height="20.16"/>
					
						<rect x="669.38" y="879.77" transform="matrix(-4.491004e-11 1 -1 -4.491004e-11 1561.5792 210.3904)" class="st2" width="12.43" height="12.43"/>
					
						<rect x="661.67" y="879.77" transform="matrix(-4.481944e-11 1 -1 -4.481944e-11 1549.1449 218.1016)" class="st2" width="7.71" height="7.71"/>
				</g>
			</g>
			<g>
				<g>
					
						<rect x="629.07" y="859.62" transform="matrix(6.123234e-17 -1 1 6.123234e-17 -230.5522 1541.4337)" class="st2" width="52.74" height="52.74"/>
					<line class="st2" x1="629.07" y1="885.99" x2="629.07" y2="827.03"/>
					
						<rect x="639.14" y="816.95" transform="matrix(6.123234e-17 -1 1 6.123234e-17 -187.8833 1498.7649)" class="st2" width="32.6" height="52.74"/>
					
						<rect x="649.22" y="827.03" transform="matrix(6.123234e-17 -1 1 6.123234e-17 -177.8106 1508.8376)" class="st2" width="32.6" height="32.6"/>
					
						<rect x="629.07" y="827.03" transform="matrix(6.123234e-17 -1 1 6.123234e-17 -197.9561 1476.2578)" class="st2" width="20.16" height="20.16"/>
					
						<rect x="629.07" y="847.19" transform="matrix(6.123234e-17 -1 1 6.123234e-17 -218.1178 1488.6921)" class="st2" width="12.43" height="12.43"/>
					
						<rect x="641.5" y="851.91" transform="matrix(6.123234e-17 -1 1 6.123234e-17 -210.4067 1501.1265)" class="st2" width="7.71" height="7.71"/>
				</g>
				<g>
					
						<rect x="629.07" y="827.03" transform="matrix(4.490434e-11 1 -1 4.490434e-11 1508.8376 197.9561)" class="st2" width="52.74" height="52.74"/>
					<line class="st2" x1="629.07" y1="853.4" x2="629.07" y2="912.36"/>
					
						<rect x="639.14" y="869.69" transform="matrix(4.486615e-11 1 -1 4.486615e-11 1551.5065 240.6249)" class="st2" width="32.6" height="52.74"/>
					
						<rect x="649.22" y="879.77" transform="matrix(4.492210e-11 1 -1 4.492210e-11 1561.5792 230.5522)" class="st2" width="32.6" height="32.6"/>
					
						<rect x="629.07" y="892.2" transform="matrix(4.492921e-11 1 -1 4.492921e-11 1541.4337 263.132)" class="st2" width="20.16" height="20.16"/>
					
						<rect x="629.07" y="879.77" transform="matrix(4.476401e-11 1 -1 4.476401e-11 1521.272 250.6977)" class="st2" width="12.43" height="12.43"/>
					
						<rect x="641.5" y="879.77" transform="matrix(4.481908e-11 1 -1 4.481908e-11 1528.9832 238.2633)" class="st2" width="7.71" height="7.71"/>
				</g>
			</g>
		</g>
		<g>
			<g>
				<g>
					
						<rect x="714.42" y="859.62" transform="matrix(6.123234e-17 -1 1 6.123234e-17 -145.1998 1626.7861)" class="st2" width="52.74" height="52.74"/>
					<line class="st2" x1="767.16" y1="885.99" x2="767.16" y2="827.03"/>
					
						<rect x="724.5" y="816.95" transform="matrix(6.123234e-17 -1 1 6.123234e-17 -102.5309 1584.1173)" class="st2" width="32.6" height="52.74"/>
					
						<rect x="714.42" y="827.03" transform="matrix(6.123234e-17 -1 1 6.123234e-17 -112.6037 1574.0446)" class="st2" width="32.6" height="32.6"/>
					
						<rect x="747" y="827.03" transform="matrix(6.123234e-17 -1 1 6.123234e-17 -80.0238 1594.1901)" class="st2" width="20.16" height="20.16"/>
					
						<rect x="754.73" y="847.19" transform="matrix(6.123234e-17 -1 1 6.123234e-17 -92.4582 1614.3518)" class="st2" width="12.43" height="12.43"/>
					
						<rect x="747.02" y="851.91" transform="matrix(6.123234e-17 -1 1 6.123234e-17 -104.8925 1606.6407)" class="st2" width="7.71" height="7.71"/>
				</g>
				<g>
					
						<rect x="714.42" y="827.03" transform="matrix(-4.490471e-11 1 -1 -4.490471e-11 1594.1901 112.6037)" class="st2" width="52.74" height="52.74"/>
					<line class="st2" x1="767.16" y1="853.4" x2="767.16" y2="912.36"/>
					
						<rect x="724.5" y="869.69" transform="matrix(-4.492247e-11 1 -1 -4.492247e-11 1636.8589 155.2725)" class="st2" width="32.6" height="52.74"/>
					
						<rect x="714.42" y="879.77" transform="matrix(-4.492247e-11 1 -1 -4.492247e-11 1626.7861 165.3452)" class="st2" width="32.6" height="32.6"/>
					
						<rect x="747" y="892.2" transform="matrix(-4.483898e-11 1 -1 -4.483898e-11 1659.366 145.1998)" class="st2" width="20.16" height="20.16"/>
					
						<rect x="754.73" y="879.77" transform="matrix(-4.491004e-11 1 -1 -4.491004e-11 1646.9316 125.038)" class="st2" width="12.43" height="12.43"/>
					
						<rect x="747.02" y="879.77" transform="matrix(-4.481944e-11 1 -1 -4.481944e-11 1634.4973 132.7491)" class="st2" width="7.71" height="7.71"/>
				</g>
			</g>
			<g>
				<g>
					
						<rect x="714.42" y="859.62" transform="matrix(6.123234e-17 -1 1 6.123234e-17 -145.1998 1626.7861)" class="st2" width="52.74" height="52.74"/>
					<line class="st2" x1="714.42" y1="885.99" x2="714.42" y2="827.03"/>
					
						<rect x="724.5" y="816.95" transform="matrix(6.123234e-17 -1 1 6.123234e-17 -102.5309 1584.1173)" class="st2" width="32.6" height="52.74"/>
					
						<rect x="734.57" y="827.03" transform="matrix(6.123234e-17 -1 1 6.123234e-17 -92.4582 1594.1901)" class="st2" width="32.6" height="32.6"/>
					
						<rect x="714.42" y="827.03" transform="matrix(6.123234e-17 -1 1 6.123234e-17 -112.6037 1561.6102)" class="st2" width="20.16" height="20.16"/>
					
						<rect x="714.42" y="847.19" transform="matrix(6.123234e-17 -1 1 6.123234e-17 -132.7654 1574.0446)" class="st2" width="12.43" height="12.43"/>
					
						<rect x="726.86" y="851.91" transform="matrix(6.123234e-17 -1 1 6.123234e-17 -125.0543 1586.4789)" class="st2" width="7.71" height="7.71"/>
				</g>
				<g>
					
						<rect x="714.42" y="827.03" transform="matrix(4.490434e-11 1 -1 4.490434e-11 1594.1901 112.6037)" class="st2" width="52.74" height="52.74"/>
					<line class="st2" x1="714.42" y1="853.4" x2="714.42" y2="912.36"/>
					
						<rect x="724.5" y="869.69" transform="matrix(4.486615e-11 1 -1 4.486615e-11 1636.8589 155.2725)" class="st2" width="32.6" height="52.74"/>
					
						<rect x="734.57" y="879.77" transform="matrix(4.492210e-11 1 -1 4.492210e-11 1646.9316 145.1998)" class="st2" width="32.6" height="32.6"/>
					
						<rect x="714.42" y="892.2" transform="matrix(4.483862e-11 1 -1 4.483862e-11 1626.7861 177.7796)" class="st2" width="20.16" height="20.16"/>
					
						<rect x="714.42" y="879.77" transform="matrix(4.490967e-11 1 -1 4.490967e-11 1606.6244 165.3452)" class="st2" width="12.43" height="12.43"/>
					
						<rect x="726.86" y="879.77" transform="matrix(4.481908e-11 1 -1 4.481908e-11 1614.3356 152.9109)" class="st2" width="7.71" height="7.71"/>
				</g>
			</g>
		</g>
	</g>
	<g class="st1">
		<g>
			<g>
				<g>
					<rect x="629.06" y="924.22" class="st2" width="85.36" height="85.36"/>
					<line class="st2" x1="671.74" y1="1009.58" x2="767.17" y2="1009.58"/>
					<rect x="714.42" y="924.22" class="st2" width="52.75" height="85.36"/>
					<rect x="714.42" y="924.22" class="st2" width="52.75" height="52.75"/>
					<rect x="734.54" y="976.95" class="st2" width="32.63" height="32.63"/>
					<rect x="714.42" y="989.46" class="st2" width="20.12" height="20.12"/>
					<rect x="714.42" y="976.98" class="st2" width="12.48" height="12.48"/>
				</g>
				<g>
					
						<rect x="681.81" y="924.22" transform="matrix(-1 -4.490021e-11 4.490021e-11 -1 1448.9822 1933.7997)" class="st2" width="85.36" height="85.36"/>
					<line class="st2" x1="724.49" y1="1009.58" x2="629.06" y2="1009.58"/>
					
						<rect x="629.06" y="924.22" transform="matrix(-1 -4.489310e-11 4.489310e-11 -1 1310.8684 1933.7997)" class="st2" width="52.75" height="85.36"/>
					
						<rect x="629.06" y="924.22" transform="matrix(-1 -4.485890e-11 4.485890e-11 -1 1310.8684 1901.1954)" class="st2" width="52.75" height="52.75"/>
					
						<rect x="629.06" y="976.95" transform="matrix(-1 -4.487489e-11 4.487489e-11 -1 1290.7443 1986.5281)" class="st2" width="32.63" height="32.63"/>
					
						<rect x="661.69" y="989.46" transform="matrix(-1 -4.492285e-11 4.492285e-11 -1 1343.499 1999.0345)" class="st2" width="20.12" height="20.12"/>
					
						<rect x="669.33" y="976.98" transform="matrix(-1 -4.489177e-11 4.489177e-11 -1 1351.1432 1966.4303)" class="st2" width="12.48" height="12.48"/>
				</g>
			</g>
			<g>
				<g>
					<rect x="629.06" y="924.22" class="st2" width="85.36" height="85.36"/>
					<line class="st2" x1="671.74" y1="924.22" x2="767.17" y2="924.22"/>
					<rect x="714.42" y="924.22" class="st2" width="52.75" height="85.36"/>
					<rect x="714.42" y="956.82" class="st2" width="52.75" height="52.75"/>
					<rect x="734.54" y="924.22" class="st2" width="32.63" height="32.63"/>
					<rect x="714.42" y="924.22" class="st2" width="20.12" height="20.12"/>
					<rect x="714.42" y="944.34" class="st2" width="12.48" height="12.48"/>
				</g>
				<g>
					
						<rect x="681.81" y="924.22" transform="matrix(-1 4.489996e-11 -4.489996e-11 -1 1448.9822 1933.7997)" class="st2" width="85.36" height="85.36"/>
					<line class="st2" x1="724.49" y1="924.22" x2="629.06" y2="924.22"/>
					
						<rect x="629.06" y="924.22" transform="matrix(-1 4.489286e-11 -4.489286e-11 -1 1310.8684 1933.7997)" class="st2" width="52.75" height="85.36"/>
					
						<rect x="629.06" y="956.82" transform="matrix(-1 4.485866e-11 -4.485866e-11 -1 1310.8684 1966.4039)" class="st2" width="52.75" height="52.75"/>
					
						<rect x="629.06" y="924.22" transform="matrix(-1 4.493016e-11 -4.493016e-11 -1 1290.7443 1881.0713)" class="st2" width="32.63" height="32.63"/>
					
						<rect x="661.69" y="924.22" transform="matrix(-1 4.483246e-11 -4.483246e-11 -1 1343.499 1868.5648)" class="st2" width="20.12" height="20.12"/>
					
						<rect x="669.33" y="944.34" transform="matrix(-1 4.489152e-11 -4.489152e-11 -1 1351.1432 1901.1691)" class="st2" width="12.48" height="12.48"/>
				</g>
			</g>
		</g>
		<g>
			<g>
				<g>
					
						<rect x="629.07" y="956.82" transform="matrix(6.123234e-17 -1 1 6.123234e-17 -327.7464 1638.6281)" class="st2" width="52.74" height="52.74"/>
					<line class="st2" x1="681.81" y1="983.19" x2="681.81" y2="924.22"/>
					
						<rect x="639.14" y="914.15" transform="matrix(6.123234e-17 -1 1 6.123234e-17 -285.0776 1595.9592)" class="st2" width="32.6" height="52.74"/>
					
						<rect x="629.07" y="924.22" transform="matrix(6.123234e-17 -1 1 6.123234e-17 -295.1503 1585.8865)" class="st2" width="32.6" height="32.6"/>
					
						<rect x="661.65" y="924.22" transform="matrix(6.123234e-17 -1 1 6.123234e-17 -262.5705 1606.032)" class="st2" width="20.16" height="20.16"/>
					
						<rect x="669.38" y="944.38" transform="matrix(6.123234e-17 -1 1 6.123234e-17 -275.0049 1626.1937)" class="st2" width="12.43" height="12.43"/>
					
						<rect x="661.67" y="949.11" transform="matrix(6.123234e-17 -1 1 6.123234e-17 -287.4392 1618.4825)" class="st2" width="7.71" height="7.71"/>
				</g>
				<g>
					
						<rect x="629.07" y="924.22" transform="matrix(-4.493846e-11 1 -1 -4.493846e-11 1606.032 295.1503)" class="st2" width="52.74" height="52.74"/>
					<line class="st2" x1="681.81" y1="950.59" x2="681.81" y2="1009.56"/>
					
						<rect x="639.14" y="966.89" transform="matrix(-4.486652e-11 1 -1 -4.486652e-11 1648.7008 337.8192)" class="st2" width="32.6" height="52.74"/>
					
						<rect x="629.07" y="976.96" transform="matrix(-4.486652e-11 1 -1 -4.486652e-11 1638.6281 347.8919)" class="st2" width="32.6" height="32.6"/>
					
						<rect x="661.65" y="989.4" transform="matrix(-4.492958e-11 1 -1 -4.492958e-11 1671.2079 327.7465)" class="st2" width="20.16" height="20.16"/>
					
						<rect x="669.38" y="976.96" transform="matrix(-4.491004e-11 1 -1 -4.491004e-11 1658.7736 307.5847)" class="st2" width="12.43" height="12.43"/>
					
						<rect x="661.67" y="976.96" transform="matrix(-4.481944e-11 1 -1 -4.481944e-11 1646.3392 315.2958)" class="st2" width="7.71" height="7.71"/>
				</g>
			</g>
			<g>
				<g>
					
						<rect x="629.07" y="956.82" transform="matrix(6.123234e-17 -1 1 6.123234e-17 -327.7464 1638.6281)" class="st2" width="52.74" height="52.74"/>
					<line class="st2" x1="629.07" y1="983.19" x2="629.07" y2="924.22"/>
					
						<rect x="639.14" y="914.15" transform="matrix(6.123234e-17 -1 1 6.123234e-17 -285.0776 1595.9592)" class="st2" width="32.6" height="52.74"/>
					
						<rect x="649.22" y="924.22" transform="matrix(6.123234e-17 -1 1 6.123234e-17 -275.0049 1606.032)" class="st2" width="32.6" height="32.6"/>
					
						<rect x="629.07" y="924.22" transform="matrix(6.123234e-17 -1 1 6.123234e-17 -295.1503 1573.4521)" class="st2" width="20.16" height="20.16"/>
					
						<rect x="629.07" y="944.38" transform="matrix(6.123234e-17 -1 1 6.123234e-17 -315.3121 1585.8865)" class="st2" width="12.43" height="12.43"/>
					
						<rect x="641.5" y="949.11" transform="matrix(6.123234e-17 -1 1 6.123234e-17 -307.601 1598.3208)" class="st2" width="7.71" height="7.71"/>
				</g>
				<g>
					
						<rect x="629.07" y="924.22" transform="matrix(4.490434e-11 1 -1 4.490434e-11 1606.032 295.1503)" class="st2" width="52.74" height="52.74"/>
					<line class="st2" x1="629.07" y1="950.59" x2="629.07" y2="1009.56"/>
					
						<rect x="639.14" y="966.89" transform="matrix(4.486615e-11 1 -1 4.486615e-11 1648.7008 337.8192)" class="st2" width="32.6" height="52.74"/>
					
						<rect x="649.22" y="976.96" transform="matrix(4.492210e-11 1 -1 4.492210e-11 1658.7736 327.7464)" class="st2" width="32.6" height="32.6"/>
					
						<rect x="629.07" y="989.4" transform="matrix(4.492921e-11 1 -1 4.492921e-11 1638.6281 360.3263)" class="st2" width="20.16" height="20.16"/>
					
						<rect x="629.07" y="976.96" transform="matrix(4.476401e-11 1 -1 4.476401e-11 1618.4663 347.8919)" class="st2" width="12.43" height="12.43"/>
					
						<rect x="641.5" y="976.96" transform="matrix(4.481908e-11 1 -1 4.481908e-11 1626.1775 335.4576)" class="st2" width="7.71" height="7.71"/>
				</g>
			</g>
		</g>
		<g>
			<g>
				<g>
					
						<rect x="714.42" y="956.82" transform="matrix(6.123234e-17 -1 1 6.123234e-17 -242.394 1723.9805)" class="st2" width="52.74" height="52.74"/>
					<line class="st2" x1="767.16" y1="983.19" x2="767.16" y2="924.22"/>
					
						<rect x="724.5" y="914.15" transform="matrix(6.123234e-17 -1 1 6.123234e-17 -199.7252 1681.3116)" class="st2" width="32.6" height="52.74"/>
					
						<rect x="714.42" y="924.22" transform="matrix(6.123234e-17 -1 1 6.123234e-17 -209.7979 1671.2389)" class="st2" width="32.6" height="32.6"/>
					
						<rect x="747" y="924.22" transform="matrix(6.123234e-17 -1 1 6.123234e-17 -177.2181 1691.3844)" class="st2" width="20.16" height="20.16"/>
					
						<rect x="754.73" y="944.38" transform="matrix(6.123234e-17 -1 1 6.123234e-17 -189.6524 1711.5461)" class="st2" width="12.43" height="12.43"/>
					
						<rect x="747.02" y="949.11" transform="matrix(6.123234e-17 -1 1 6.123234e-17 -202.0868 1703.835)" class="st2" width="7.71" height="7.71"/>
				</g>
				<g>
					
						<rect x="714.42" y="924.22" transform="matrix(-4.490471e-11 1 -1 -4.490471e-11 1691.3844 209.7979)" class="st2" width="52.74" height="52.74"/>
					<line class="st2" x1="767.16" y1="950.59" x2="767.16" y2="1009.56"/>
					
						<rect x="724.5" y="966.89" transform="matrix(-4.492247e-11 1 -1 -4.492247e-11 1734.0532 252.4668)" class="st2" width="32.6" height="52.74"/>
					
						<rect x="714.42" y="976.96" transform="matrix(-4.492247e-11 1 -1 -4.492247e-11 1723.9805 262.5395)" class="st2" width="32.6" height="32.6"/>
					
						<rect x="747" y="989.4" transform="matrix(-4.483898e-11 1 -1 -4.483898e-11 1756.5603 242.394)" class="st2" width="20.16" height="20.16"/>
					
						<rect x="754.73" y="976.96" transform="matrix(-4.491004e-11 1 -1 -4.491004e-11 1744.126 222.2323)" class="st2" width="12.43" height="12.43"/>
					
						<rect x="747.02" y="976.96" transform="matrix(-4.481944e-11 1 -1 -4.481944e-11 1731.6917 229.9434)" class="st2" width="7.71" height="7.71"/>
				</g>
			</g>
			<g>
				<g>
					
						<rect x="714.42" y="956.82" transform="matrix(6.123234e-17 -1 1 6.123234e-17 -242.394 1723.9805)" class="st2" width="52.74" height="52.74"/>
					<line class="st2" x1="714.42" y1="983.19" x2="714.42" y2="924.22"/>
					
						<rect x="724.5" y="914.15" transform="matrix(6.123234e-17 -1 1 6.123234e-17 -199.7252 1681.3116)" class="st2" width="32.6" height="52.74"/>
					
						<rect x="734.57" y="924.22" transform="matrix(6.123234e-17 -1 1 6.123234e-17 -189.6524 1691.3844)" class="st2" width="32.6" height="32.6"/>
					
						<rect x="714.42" y="924.22" transform="matrix(6.123234e-17 -1 1 6.123234e-17 -209.7979 1658.8046)" class="st2" width="20.16" height="20.16"/>
					
						<rect x="714.42" y="944.38" transform="matrix(6.123234e-17 -1 1 6.123234e-17 -229.9597 1671.2389)" class="st2" width="12.43" height="12.43"/>
					
						<rect x="726.86" y="949.11" transform="matrix(6.123234e-17 -1 1 6.123234e-17 -222.2485 1683.6732)" class="st2" width="7.71" height="7.71"/>
				</g>
				<g>
					
						<rect x="714.42" y="924.22" transform="matrix(4.490434e-11 1 -1 4.490434e-11 1691.3844 209.7979)" class="st2" width="52.74" height="52.74"/>
					<line class="st2" x1="714.42" y1="950.59" x2="714.42" y2="1009.56"/>
					
						<rect x="724.5" y="966.89" transform="matrix(4.486615e-11 1 -1 4.486615e-11 1734.0532 252.4668)" class="st2" width="32.6" height="52.74"/>
					
						<rect x="734.57" y="976.96" transform="matrix(4.492210e-11 1 -1 4.492210e-11 1744.126 242.394)" class="st2" width="32.6" height="32.6"/>
					
						<rect x="714.42" y="989.4" transform="matrix(4.483862e-11 1 -1 4.483862e-11 1723.9805 274.9738)" class="st2" width="20.16" height="20.16"/>
					
						<rect x="714.42" y="976.96" transform="matrix(4.490967e-11 1 -1 4.490967e-11 1703.8187 262.5395)" class="st2" width="12.43" height="12.43"/>
					
						<rect x="726.86" y="976.96" transform="matrix(4.481908e-11 1 -1 4.481908e-11 1711.5299 250.1052)" class="st2" width="7.71" height="7.71"/>
				</g>
			</g>
		</g>
	</g>
	<g class="st1">
		<g>
			<g>
				<g>
					<rect x="629.06" y="1024.09" class="st2" width="85.36" height="85.36"/>
					<rect x="714.42" y="1024.09" class="st2" width="52.75" height="85.36"/>
					<rect x="714.42" y="1024.09" class="st2" width="52.75" height="52.75"/>
					<rect x="734.54" y="1076.81" class="st2" width="32.63" height="32.63"/>
					<rect x="714.42" y="1076.84" class="st2" width="12.48" height="12.48"/>
				</g>
				<g>
					
						<rect x="681.81" y="1024.09" transform="matrix(-1 -4.490021e-11 4.490021e-11 -1 1448.9822 2133.53)" class="st2" width="85.36" height="85.36"/>
					
						<rect x="629.06" y="1024.09" transform="matrix(-1 -4.489310e-11 4.489310e-11 -1 1310.8684 2133.53)" class="st2" width="52.75" height="85.36"/>
					
						<rect x="629.06" y="1024.09" transform="matrix(-1 -4.485890e-11 4.485890e-11 -1 1310.8684 2100.9258)" class="st2" width="52.75" height="52.75"/>
					
						<rect x="629.06" y="1076.81" transform="matrix(-1 -4.487489e-11 4.487489e-11 -1 1290.7443 2186.2585)" class="st2" width="32.63" height="32.63"/>
					
						<rect x="669.33" y="1076.84" transform="matrix(-1 -4.489177e-11 4.489177e-11 -1 1351.1432 2166.1606)" class="st2" width="12.48" height="12.48"/>
				</g>
			</g>
			<g>
				<g>
					<rect x="629.06" y="1024.09" class="st2" width="85.36" height="85.36"/>
					<line class="st2" x1="671.74" y1="1024.09" x2="767.17" y2="1024.09"/>
					<rect x="714.42" y="1024.09" class="st2" width="52.75" height="85.36"/>
					<rect x="714.42" y="1056.69" class="st2" width="52.75" height="52.75"/>
					<rect x="734.54" y="1024.09" class="st2" width="32.63" height="32.63"/>
					<rect x="714.42" y="1024.09" class="st2" width="20.12" height="20.12"/>
					<rect x="714.42" y="1044.21" class="st2" width="12.48" height="12.48"/>
				</g>
				<g>
					
						<rect x="681.81" y="1024.09" transform="matrix(-1 4.489996e-11 -4.489996e-11 -1 1448.9822 2133.53)" class="st2" width="85.36" height="85.36"/>
					<line class="st2" x1="724.49" y1="1024.09" x2="629.06" y2="1024.09"/>
					
						<rect x="629.06" y="1024.09" transform="matrix(-1 4.489286e-11 -4.489286e-11 -1 1310.8684 2133.53)" class="st2" width="52.75" height="85.36"/>
					
						<rect x="629.06" y="1056.69" transform="matrix(-1 4.485866e-11 -4.485866e-11 -1 1310.8684 2166.1343)" class="st2" width="52.75" height="52.75"/>
					
						<rect x="629.06" y="1024.09" transform="matrix(-1 4.493016e-11 -4.493016e-11 -1 1290.7443 2080.8018)" class="st2" width="32.63" height="32.63"/>
					
						<rect x="661.69" y="1024.09" transform="matrix(-1 4.483246e-11 -4.483246e-11 -1 1343.499 2068.2952)" class="st2" width="20.12" height="20.12"/>
					
						<rect x="669.33" y="1044.21" transform="matrix(-1 4.489152e-11 -4.489152e-11 -1 1351.1432 2100.8994)" class="st2" width="12.48" height="12.48"/>
				</g>
			</g>
		</g>
		<g>
			<g>
				<g>
					
						<rect x="629.07" y="1056.68" transform="matrix(6.123234e-17 -1 1 6.123234e-17 -427.6116 1738.4933)" class="st2" width="52.74" height="52.74"/>
					<line class="st2" x1="681.81" y1="1083.05" x2="681.81" y2="1024.09"/>
					
						<rect x="639.14" y="1014.01" transform="matrix(6.123234e-17 -1 1 6.123234e-17 -384.9428 1695.8243)" class="st2" width="32.6" height="52.74"/>
					
						<rect x="629.07" y="1024.09" transform="matrix(6.123234e-17 -1 1 6.123234e-17 -395.0155 1685.7516)" class="st2" width="32.6" height="32.6"/>
					
						<rect x="661.65" y="1024.09" transform="matrix(6.123234e-17 -1 1 6.123234e-17 -362.4357 1705.8971)" class="st2" width="20.16" height="20.16"/>
					
						<rect x="669.38" y="1044.25" transform="matrix(6.123234e-17 -1 1 6.123234e-17 -374.8701 1726.059)" class="st2" width="12.43" height="12.43"/>
					
						<rect x="661.67" y="1048.97" transform="matrix(6.123234e-17 -1 1 6.123234e-17 -387.3044 1718.3478)" class="st2" width="7.71" height="7.71"/>
				</g>
				<g>
					
						<rect x="629.07" y="1024.09" transform="matrix(-4.493846e-11 1 -1 -4.493846e-11 1705.8971 395.0155)" class="st2" width="52.74" height="52.74"/>
					<line class="st2" x1="681.81" y1="1050.46" x2="681.81" y2="1109.42"/>
					
						<rect x="639.14" y="1066.75" transform="matrix(-4.486652e-11 1 -1 -4.486652e-11 1748.566 437.6844)" class="st2" width="32.6" height="52.74"/>
					
						<rect x="629.07" y="1076.83" transform="matrix(-4.486652e-11 1 -1 -4.486652e-11 1738.4933 447.7571)" class="st2" width="32.6" height="32.6"/>
					
						<rect x="669.38" y="1076.83" transform="matrix(-4.491004e-11 1 -1 -4.491004e-11 1758.6388 407.4499)" class="st2" width="12.43" height="12.43"/>
					
						<rect x="661.67" y="1076.83" transform="matrix(-4.481944e-11 1 -1 -4.481944e-11 1746.2043 415.161)" class="st2" width="7.71" height="7.71"/>
				</g>
			</g>
			<g>
				<g>
					
						<rect x="629.07" y="1056.68" transform="matrix(6.123234e-17 -1 1 6.123234e-17 -427.6116 1738.4933)" class="st2" width="52.74" height="52.74"/>
					<line class="st2" x1="629.07" y1="1083.05" x2="629.07" y2="1024.09"/>
					
						<rect x="639.14" y="1014.01" transform="matrix(6.123234e-17 -1 1 6.123234e-17 -384.9428 1695.8243)" class="st2" width="32.6" height="52.74"/>
					
						<rect x="649.22" y="1024.09" transform="matrix(6.123234e-17 -1 1 6.123234e-17 -374.8701 1705.8971)" class="st2" width="32.6" height="32.6"/>
					
						<rect x="629.07" y="1024.09" transform="matrix(6.123234e-17 -1 1 6.123234e-17 -395.0155 1673.3173)" class="st2" width="20.16" height="20.16"/>
					
						<rect x="629.07" y="1044.25" transform="matrix(6.123234e-17 -1 1 6.123234e-17 -415.1773 1685.7516)" class="st2" width="12.43" height="12.43"/>
					
						<rect x="641.5" y="1048.97" transform="matrix(6.123234e-17 -1 1 6.123234e-17 -407.4662 1698.1859)" class="st2" width="7.71" height="7.71"/>
				</g>
				<g>
					
						<rect x="629.07" y="1024.09" transform="matrix(4.490434e-11 1 -1 4.490434e-11 1705.8971 395.0155)" class="st2" width="52.74" height="52.74"/>
					<line class="st2" x1="629.07" y1="1050.46" x2="629.07" y2="1109.42"/>
					
						<rect x="639.14" y="1066.75" transform="matrix(4.486615e-11 1 -1 4.486615e-11 1748.566 437.6844)" class="st2" width="32.6" height="52.74"/>
					
						<rect x="649.22" y="1076.83" transform="matrix(4.492210e-11 1 -1 4.492210e-11 1758.6388 427.6116)" class="st2" width="32.6" height="32.6"/>
					
						<rect x="629.07" y="1076.83" transform="matrix(4.476401e-11 1 -1 4.476401e-11 1718.3314 447.7571)" class="st2" width="12.43" height="12.43"/>
					
						<rect x="641.5" y="1076.83" transform="matrix(4.481908e-11 1 -1 4.481908e-11 1726.0426 435.3228)" class="st2" width="7.71" height="7.71"/>
				</g>
			</g>
		</g>
		<g>
			<g>
				<g>
					
						<rect x="714.42" y="1056.68" transform="matrix(6.123234e-17 -1 1 6.123234e-17 -342.2592 1823.8457)" class="st2" width="52.74" height="52.74"/>
					<line class="st2" x1="767.16" y1="1083.05" x2="767.16" y2="1024.09"/>
					
						<rect x="724.5" y="1014.01" transform="matrix(6.123234e-17 -1 1 6.123234e-17 -299.5904 1781.1768)" class="st2" width="32.6" height="52.74"/>
					
						<rect x="714.42" y="1024.09" transform="matrix(6.123234e-17 -1 1 6.123234e-17 -309.6631 1771.104)" class="st2" width="32.6" height="32.6"/>
					
						<rect x="747" y="1024.09" transform="matrix(6.123234e-17 -1 1 6.123234e-17 -277.0833 1791.2495)" class="st2" width="20.16" height="20.16"/>
					
						<rect x="754.73" y="1044.25" transform="matrix(6.123234e-17 -1 1 6.123234e-17 -289.5176 1811.4114)" class="st2" width="12.43" height="12.43"/>
					
						<rect x="747.02" y="1048.97" transform="matrix(6.123234e-17 -1 1 6.123234e-17 -301.952 1803.7002)" class="st2" width="7.71" height="7.71"/>
				</g>
				<g>
					
						<rect x="714.42" y="1024.09" transform="matrix(-4.490471e-11 1 -1 -4.490471e-11 1791.2495 309.6631)" class="st2" width="52.74" height="52.74"/>
					<line class="st2" x1="767.16" y1="1050.46" x2="767.16" y2="1109.42"/>
					
						<rect x="724.5" y="1066.75" transform="matrix(-4.492247e-11 1 -1 -4.492247e-11 1833.9185 352.332)" class="st2" width="32.6" height="52.74"/>
					
						<rect x="714.42" y="1076.83" transform="matrix(-4.492247e-11 1 -1 -4.492247e-11 1823.8457 362.4047)" class="st2" width="32.6" height="32.6"/>
					
						<rect x="754.73" y="1076.83" transform="matrix(-4.491004e-11 1 -1 -4.491004e-11 1843.9912 322.0974)" class="st2" width="12.43" height="12.43"/>
					
						<rect x="747.02" y="1076.83" transform="matrix(-4.481944e-11 1 -1 -4.481944e-11 1831.5569 329.8086)" class="st2" width="7.71" height="7.71"/>
				</g>
			</g>
			<g>
				<g>
					
						<rect x="714.42" y="1056.68" transform="matrix(6.123234e-17 -1 1 6.123234e-17 -342.2592 1823.8457)" class="st2" width="52.74" height="52.74"/>
					<line class="st2" x1="714.42" y1="1083.05" x2="714.42" y2="1024.09"/>
					
						<rect x="724.5" y="1014.01" transform="matrix(6.123234e-17 -1 1 6.123234e-17 -299.5904 1781.1768)" class="st2" width="32.6" height="52.74"/>
					
						<rect x="734.57" y="1024.09" transform="matrix(6.123234e-17 -1 1 6.123234e-17 -289.5176 1791.2495)" class="st2" width="32.6" height="32.6"/>
					
						<rect x="714.42" y="1024.09" transform="matrix(6.123234e-17 -1 1 6.123234e-17 -309.6631 1758.6697)" class="st2" width="20.16" height="20.16"/>
					
						<rect x="714.42" y="1044.25" transform="matrix(6.123234e-17 -1 1 6.123234e-17 -329.8249 1771.104)" class="st2" width="12.43" height="12.43"/>
					
						<rect x="726.86" y="1048.97" transform="matrix(6.123234e-17 -1 1 6.123234e-17 -322.1137 1783.5385)" class="st2" width="7.71" height="7.71"/>
				</g>
				<g>
					
						<rect x="714.42" y="1024.09" transform="matrix(4.490434e-11 1 -1 4.490434e-11 1791.2495 309.6631)" class="st2" width="52.74" height="52.74"/>
					<line class="st2" x1="714.42" y1="1050.46" x2="714.42" y2="1109.42"/>
					
						<rect x="724.5" y="1066.75" transform="matrix(4.486615e-11 1 -1 4.486615e-11 1833.9185 352.332)" class="st2" width="32.6" height="52.74"/>
					
						<rect x="734.57" y="1076.83" transform="matrix(4.492210e-11 1 -1 4.492210e-11 1843.9912 342.2592)" class="st2" width="32.6" height="32.6"/>
					
						<rect x="714.42" y="1076.83" transform="matrix(4.490967e-11 1 -1 4.490967e-11 1803.6838 362.4047)" class="st2" width="12.43" height="12.43"/>
					
						<rect x="726.86" y="1076.83" transform="matrix(4.481908e-11 1 -1 4.481908e-11 1811.395 349.9704)" class="st2" width="7.71" height="7.71"/>
				</g>
			</g>
		</g>
	</g>
</g>
<g id="Layer_1">
	<g>
		<path d="M206.24,589.52c0,5.67-4.57,10.06-10.22,10.06c-4.57,0-8.41-3.29-9.69-7.5c-0.19-0.73-0.37-1.64-0.37-2.56V481.71
			c0-5.65,4.57-10.04,10.06-10.04c5.65,0,10.22,4.39,10.22,10.04v31.8c5.85-3.09,12.42-5.3,19.55-5.3
			c22.12,0,39.85,18.09,39.85,40.02v41.29c0,5.67-4.39,10.06-10.06,10.06c-5.65,0-10.04-4.39-10.04-10.06v-41.29
			c0-10.79-8.78-19.55-19.74-19.74c-10.77,0.19-19.36,8.96-19.55,19.74V589.52z"/>
		<path d="M331.12,624.06v-69.8c0,0,0,0,0-0.18V517.9c0-5.3,4.39-9.69,9.69-9.69c5.12,0,9.31,3.47,10.06,7.5
			c6.75-4.39,15.52-7.5,24.85-7.5c24.3,0,44.22,20.83,44.22,45.87c0,25.03-19.92,45.31-44.22,45.31c-9.14,0-17.91-2.74-24.49-7.48
			v32.15c0,5.12-4.57,9.88-10.41,9.88C335.51,633.94,331.12,629.18,331.12,624.06z M351.22,554.08c0,7.13,2.38,14.06,7.13,18.27
			c4.57,5.12,10.59,7.68,17.36,7.68c6.2,0,12.42-2.56,17.17-7.68c4.21-4.21,7.13-11.14,7.13-18.27s-2.92-13.7-7.13-18.46
			c-4.75-4.92-10.97-7.48-17.17-7.48c-6.77,0-12.8,2.56-17.36,7.48C353.6,540.38,351.22,546.96,351.22,554.08z"/>
		<g>
			<path d="M510.81,522.11c-7.48-8.6-18.45-13.9-30.52-13.9c-12.6,0-23.21,5.3-31.42,13.9c-7.86,8.76-12.62,19.55-12.62,31.97
				c0,12.78,4.76,24.12,12.62,32.15c8.21,8.59,18.82,13.9,31.42,13.9c12.07,0,23.03-5.31,30.52-13.9
				c8.23-8.03,12.8-19.37,12.8-32.15C523.6,541.66,519.04,530.87,510.81,522.11z M497.1,573.46c-4.57,4.37-10.42,6.75-16.81,6.75
				c-6.95,0-12.97-2.38-17.54-6.75c-4.2-5.12-6.58-11.52-6.58-19.37c0-7.5,2.38-14.08,6.58-19.01c4.57-4.02,10.59-6.93,17.54-6.93
				c6.4,0,12.25,2.92,16.81,6.93c4.57,4.94,7.13,11.52,7.13,19.01C504.23,561.94,501.67,568.34,497.1,573.46z"/>
			<path d="M524.13,477.12l-4.34-3.04l-30.19-20.69l-3.99-2.61c-3.43-2.37-8.09-2.48-11.62-0.01l-3.74,2.62l-30.19,20.69l-4.34,3.04
				c-4.63,3.24-5.71,9.36-2.46,14c3.14,4.49,9.36,5.71,13.99,2.47l17.91-12.08l14.77-10.34l14.77,10.34l17.91,12.08
				c4.63,3.24,10.85,2.02,13.99-2.47C529.84,486.47,528.76,480.36,524.13,477.12z"/>
		</g>
		<path d="M591.63,518.27c0,5.48-4.75,10.04-10.22,10.04h-4.57v50.99c5.65,0,10.04,4.57,10.04,10.22c0,5.67-4.39,10.06-10.04,10.06
			c-11.14,0-20.29-9.14-20.29-20.28v-50.99h-5.3c-5.65,0-10.04-4.57-10.04-10.04c0-5.67,4.39-10.06,10.04-10.06h5.3v-26.5
			c0-5.65,4.57-10.04,10.24-10.04s10.06,4.39,10.06,10.04v26.5h4.57C586.88,508.21,591.63,512.6,591.63,518.27z"/>
		<path d="M600.79,553.89c0.19-24.85,19.55-45.68,44.59-45.68c23.75,0,42.57,17.72,44.04,42.39c0,0.19,0,0.55,0,0.92
			c0,0.36,0,1.28-0.19,1.64c-0.54,4.39-4.37,7.32-9.49,7.32h-58.12c0.92,4.2,2.93,8.94,6.22,12.05c3.84,4.39,11.14,7.68,17.54,8.23
			c6.58,0.55,14.43-1.1,19-4.57c3.84-4.02,11.34-3.48,13.7-0.55c2.38,2.56,4.21,8.03,0,11.87c-8.96,8.23-19.73,12.07-32.7,12.07
			C620.34,599.39,600.99,578.75,600.79,553.89z M620.72,544.95h51.72c-1.83-7.32-11.16-18.09-27.05-19.37
			C629.85,526.3,622.17,537.45,620.72,544.95z"/>
		<path d="M785.78,546.03c0,0.19,0,0.37,0,0.55v43.31c0,5.3-4.39,9.69-9.69,9.69c-5.12,0-9.86-4.39-9.86-9.69v-43.31
			c0-0.18,0-0.36,0-0.55c-0.19-10.04-8.6-18.27-18.82-18.27c-10.06,0-18.46,8.41-18.46,18.82v43.31c0,0.36-0.18,0.91-0.18,1.28
			c0,0.18,0,0.55,0,0.55c-0.18,0.36-0.18,0.73-0.55,1.09c0,0.19,0,0.55,0,0.92c-1.64,3.29-5.3,5.85-9.14,5.85
			c-0.73,0-1.28-0.19-1.83-0.19c-4.37-1.09-7.86-4.75-7.86-9.49v-43.31c0-0.18,0-0.18,0-0.18v-28.33c0-5.65,4.39-9.86,9.69-9.86
			c3.84,0,7.31,2.01,8.78,5.49c5.85-3.48,12.6-5.49,19.55-5.49c11.5,0,21.74,4.75,28.69,12.62c6.75-7.87,17.17-12.62,28.69-12.62
			c21.01,0,38,17.18,38,38.37v43.31c0,5.3-4.37,9.69-9.67,9.69c-5.31,0-9.88-4.39-9.88-9.69v-43.31c0-10.42-8.41-18.82-18.45-18.82
			C794.37,527.76,786.14,535.99,785.78,546.03z"/>
		<g>
			<g>
				<path d="M307.53,516.79v71.27c0,5.48-4.21,9.86-9.86,9.86c-5.49,0-9.88-4.39-9.88-9.86v-71.27c0-5.85,4.39-10.06,9.88-10.06
					C303.32,506.73,307.53,510.94,307.53,516.79z"/>
			</g>
			<circle cx="297.65" cy="481.88" r="9.87"/>
		</g>
		<g>
			<g>
				<path d="M894.04,518.45v71.27c0,5.48-4.21,9.86-9.86,9.86c-5.49,0-9.88-4.39-9.88-9.86v-71.27c0-5.85,4.39-10.06,9.88-10.06
					C889.83,508.39,894.04,512.6,894.04,518.45z"/>
			</g>
			<circle cx="884.16" cy="483.54" r="9.87"/>
		</g>
	</g>
</g>
</svg>
